<svg xmlns="http://www.w3.org/2000/svg" viewBox="0 0 512 512" fill="none">
  <circle cx="256" cy="256" r="240" fill="url(#cosmos-gradient)"/>
  <g transform="translate(256, 256)">
    <!-- Central atom -->
    <circle r="20" fill="#fff"/>

    <!-- Orbital rings -->
    <ellipse rx="80" ry="30" fill="none" stroke="#fff" stroke-width="3" opacity="0.6" transform="rotate(30)"/>
    <ellipse rx="120" ry="40" fill="none" stroke="#fff" stroke-width="3" opacity="0.5" transform="rotate(-30)"/>
    <ellipse rx="160" ry="50" fill="none" stroke="#fff" stroke-width="3" opacity="0.4" transform="rotate(60)"/>

    <!-- Orbiting atoms -->
    <circle cx="80" cy="0" r="12" fill="#fff" transform="rotate(0)"/>
    <circle cx="80" cy="0" r="12" fill="#fff" transform="rotate(120)"/>
    <circle cx="80" cy="0" r="12" fill="#fff" transform="rotate(240)"/>

    <circle cx="120" cy="0" r="10" fill="#fff" opacity="0.9" transform="rotate(60)"/>
    <circle cx="120" cy="0" r="10" fill="#fff" opacity="0.9" transform="rotate(180)"/>
    <circle cx="120" cy="0" r="10" fill="#fff" opacity="0.9" transform="rotate(300)"/>

    <circle cx="160" cy="0" r="8" fill="#fff" opacity="0.8" transform="rotate(30)"/>
    <circle cx="160" cy="0" r="8" fill="#fff" opacity="0.8" transform="rotate(90)"/>
    <circle cx="160" cy="0" r="8" fill="#fff" opacity="0.8" transform="rotate(150)"/>
    <circle cx="160" cy="0" r="8" fill="#fff" opacity="0.8" transform="rotate(210)"/>
    <circle cx="160" cy="0" r="8" fill="#fff" opacity="0.8" transform="rotate(270)"/>
    <circle cx="160" cy="0" r="8" fill="#fff" opacity="0.8" transform="rotate(330)"/>
  </g>

  <defs>
    <linearGradient id="cosmos-gradient" x1="0%" y1="0%" x2="100%" y2="100%">
      <stop offset="0%" style="stop-color:#5E3FBE;stop-opacity:1" />
      <stop offset="50%" style="stop-color:#7B5BF2;stop-opacity:1" />
      <stop offset="100%" style="stop-color:#9B87F5;stop-opacity:1" />
    </linearGradient>
  </defs>
</svg>